<svg aria-hidden="true" style="position: absolute; width: 0; height: 0; overflow: hidden;" version="1.1" xmlns="http://www.w3.org/2000/svg" xmlns:xlink="http://www.w3.org/1999/xlink">
<defs>
<symbol id="icon-app" viewBox="0 0 32 32">
<path fill="#ff9c1a" style="fill: var(--color1, #ff9c1a)" d="M2.667 8c0-1.061 0.421-2.078 1.172-2.828s1.768-1.172 2.828-1.172h18.667c1.061 0 2.078 0.421 2.828 1.172s1.172 1.768 1.172 2.828v16c0 1.061-0.421 2.078-1.172 2.828s-1.768 1.172-2.828 1.172h-18.667c-1.061 0-2.078-0.421-2.828-1.172s-1.172-1.768-1.172-2.828v-16zM6.667 6.667c-0.354 0-0.693 0.14-0.943 0.391s-0.391 0.589-0.391 0.943v16c0 0.354 0.14 0.693 0.391 0.943s0.589 0.391 0.943 0.391h18.667c0.354 0 0.693-0.141 0.943-0.391s0.391-0.589 0.391-0.943v-16c0-0.354-0.141-0.693-0.391-0.943s-0.589-0.391-0.943-0.391h-18.667zM21.333 9.333c0-0.354 0.141-0.693 0.391-0.943s0.589-0.391 0.943-0.391h1.333c0.354 0 0.693 0.14 0.943 0.391s0.391 0.589 0.391 0.943c0 0.354-0.141 0.693-0.391 0.943s-0.589 0.391-0.943 0.391h-1.333c-0.354 0-0.693-0.14-0.943-0.391s-0.391-0.589-0.391-0.943zM12 16c0-1.061 0.421-2.078 1.172-2.828s1.768-1.172 2.828-1.172c1.061 0 2.078 0.421 2.828 1.172s1.172 1.768 1.172 2.828c0 1.061-0.421 2.078-1.172 2.828s-1.768 1.172-2.828 1.172c-1.061 0-2.078-0.421-2.828-1.172s-1.172-1.768-1.172-2.828zM16 9.333c-1.768 0-3.464 0.702-4.714 1.953s-1.953 2.946-1.953 4.714c0 1.768 0.702 3.464 1.953 4.714s2.946 1.953 4.714 1.953 3.464-0.702 4.714-1.953c1.25-1.25 1.953-2.946 1.953-4.714s-0.702-3.464-1.953-4.714c-1.25-1.25-2.946-1.953-4.714-1.953z"></path>
</symbol>
<symbol id="icon-blog" viewBox="0 0 32 32">
<path  d="M18.324 19.199h8.223v7.062h-8.223v-7.062z"></path>
<path  d="M5.453 19.306h9.653v1.073h-9.653v-1.073z"></path>
<path  d="M5.453 25.081h9.653v1.073h-9.653v-1.073z"></path>
<path  d="M5.453 22.194h9.653v1.073h-9.653v-1.073z"></path>
<path  d="M26.027 0h-20.053c-3.3 0.001-5.973 2.674-5.974 5.973v18.98c0.002 3.891 3.154 7.045 7.046 7.046h17.908c3.892-0.001 7.045-3.154 7.046-7.046v-18.98c-0-3.299-2.674-5.973-5.973-5.973zM29.050 24.954c-0 1.134-0.457 2.151-1.2 2.896-0.745 0.743-1.762 1.199-2.896 1.2h-17.908c-1.134-0.001-2.152-0.457-2.897-1.2-0.743-0.745-1.199-1.762-1.2-2.896v-17.535h26.101v17.535z"></path>
<path d="M5.56 16.744h2.161c1.232 0 1.978-0.536 1.978-1.659 0-0.678-0.385-1.148-0.762-1.29v-0.017c0.377-0.21 0.662-0.595 0.662-1.214 0-0.906-0.578-1.517-1.818-1.517h-2.221c-0.050 0-0.083 0.034-0.083 0.084v5.53c0 0.051 0.034 0.084 0.083 0.084zM6.709 12.093c0-0.033 0.016-0.050 0.050-0.050h0.872c0.469 0 0.745 0.243 0.745 0.662s-0.277 0.671-0.745 0.671h-0.872c-0.035 0-0.050-0.017-0.050-0.050v-1.232zM6.709 14.372c0-0.033 0.016-0.050 0.050-0.050h0.938c0.504 0 0.771 0.277 0.771 0.713 0 0.444-0.268 0.712-0.771 0.712h-0.938c-0.035 0-0.050-0.017-0.050-0.051v-1.325z"></path>
<path d="M11.345 16.744h3.713c0.050 0 0.083-0.034 0.083-0.084v-0.93c0-0.051-0.034-0.084-0.083-0.084h-2.514c-0.034 0-0.050-0.017-0.050-0.051v-4.465c0-0.050-0.033-0.084-0.084-0.084h-1.065c-0.050 0-0.083 0.034-0.083 0.084v5.53c0 0.051 0.033 0.084 0.083 0.084z"></path>
<path d="M18.294 16.836c0.998 0 1.785-0.46 2.078-1.382 0.126-0.394 0.159-0.712 0.159-1.559s-0.033-1.165-0.159-1.559c-0.293-0.921-1.081-1.382-2.078-1.382s-1.785 0.461-2.078 1.382c-0.126 0.394-0.16 0.712-0.16 1.559s0.034 1.165 0.16 1.559c0.293 0.922 1.080 1.382 2.078 1.382zM17.398 12.672c0.126-0.394 0.428-0.628 0.897-0.628s0.771 0.235 0.897 0.628c0.067 0.202 0.092 0.477 0.092 1.223 0 0.745-0.025 1.022-0.092 1.223-0.126 0.394-0.427 0.63-0.897 0.63s-0.771-0.235-0.897-0.63c-0.067-0.201-0.092-0.478-0.092-1.223 0-0.746 0.026-1.022 0.092-1.223z"></path>
<path d="M24.248 16.836c1.005 0 1.793-0.511 2.078-1.425 0.1-0.309 0.141-0.779 0.141-1.282v-0.47c0-0.049-0.034-0.083-0.083-0.083h-1.96c-0.051 0-0.084 0.034-0.084 0.083v0.806c0 0.050 0.034 0.083 0.084 0.083h0.77c0.034 0 0.050 0.017 0.050 0.050 0 0.242-0.025 0.419-0.067 0.562-0.117 0.377-0.486 0.587-0.913 0.587-0.494 0-0.805-0.235-0.931-0.63-0.067-0.201-0.092-0.478-0.092-1.223 0-0.746 0.025-1.014 0.092-1.215 0.126-0.394 0.428-0.637 0.914-0.637 0.469 0 0.753 0.201 0.98 0.587 0.017 0.042 0.059 0.059 0.118 0.042l0.896-0.377c0.050-0.025 0.059-0.075 0.034-0.126-0.269-0.687-0.964-1.214-2.027-1.214-1.014 0-1.802 0.461-2.095 1.382-0.126 0.394-0.16 0.712-0.16 1.559s0.034 1.165 0.16 1.559c0.293 0.922 1.081 1.382 2.096 1.382z"></path>
</symbol>
<symbol id="icon-code" viewBox="0 0 32 32">
<path fill="#e80505" style="fill: var(--color3, #e80505)" d="M17.184 4l2.613 0.533-4.987 23.467-2.613-0.533 4.987-23.467zM26.117 16l-4.787-4.787v-3.773l8.56 8.56-8.56 8.547v-3.773l4.787-4.773zM2.104 16l8.56-8.56v3.773l-4.787 4.787 4.787 4.773v3.773l-8.56-8.547z"></path>
</symbol>
<symbol id="icon-contact" viewBox="0 0 32 32">
<path d="M27.52 3.2h-19.2c-0.679 0-1.33 0.27-1.81 0.75s-0.75 1.131-0.75 1.81v3.84h-2.56v2.56h2.56v2.56h-2.56v2.56h2.56v2.56h-2.56v2.56h2.56v3.84c0 0.679 0.27 1.33 0.75 1.81s1.131 0.75 1.81 0.75h19.2c0.339 0 0.665-0.135 0.905-0.375s0.375-0.566 0.375-0.905v-23.040c0-0.339-0.135-0.665-0.375-0.905s-0.566-0.375-0.905-0.375zM17.28 7.039c2.109 0 3.84 1.729 3.84 3.84-0.004 1.017-0.409 1.992-1.129 2.712s-1.694 1.126-2.711 1.13c-2.108 0-3.84-1.732-3.84-3.841 0-2.111 1.732-3.84 3.84-3.84zM24.96 23.68h-15.36v-0.96c0-2.84 3.462-5.76 7.68-5.76s7.68 2.92 7.68 5.76v0.96z"></path>
</symbol>
<symbol id="icon-download" viewBox="0 0 32 32">
<path fill="#f2f7fc" style="fill: var(--color4, #f2f7fc)" d="M16 21.333l-6.667-6.667 1.867-1.933 3.467 3.467v-10.867h2.667v10.867l3.467-3.467 1.867 1.933-6.667 6.667zM8 26.667c-0.733 0-1.361-0.261-1.884-0.784s-0.784-1.15-0.783-1.883v-4h2.667v4h16v-4h2.667v4c0 0.733-0.261 1.361-0.784 1.884s-1.15 0.784-1.883 0.783h-16z"></path>
</symbol>
<symbol id="icon-facebook" viewBox="0 0 32 32">
<path fill="#1877f2" style="fill: var(--color5, #1877f2)" d="M18.667 18.411h3.78l1.512-6.048h-5.292v-3.024c0-1.557 0-3.024 3.024-3.024h2.268v-5.080c-0.493-0.065-2.354-0.212-4.32-0.212-4.105 0-7.020 2.505-7.020 7.106v4.233h-4.536v6.048h4.536v12.852h6.048v-12.852z"></path>
</symbol>
<symbol id="icon-github" viewBox="0 0 32 32">
<path d="M15.572 0.614c-8.599 0-15.564 6.965-15.564 15.564-0.002 3.267 1.025 6.452 2.935 9.103s4.606 4.633 7.706 5.665c0.778 0.136 1.071-0.331 1.071-0.741 0-0.369-0.020-1.594-0.020-2.898-3.91 0.721-4.921-0.952-5.233-1.829-0.176-0.448-0.934-1.829-1.595-2.199-0.545-0.291-1.323-1.012-0.020-1.030 1.226-0.020 2.101 1.128 2.394 1.595 1.401 2.353 3.637 1.692 4.532 1.284 0.137-1.012 0.545-1.692 0.993-2.081-3.463-0.389-7.082-1.732-7.082-7.686 0-1.693 0.602-3.093 1.595-4.184-0.156-0.389-0.7-1.984 0.156-4.125 0 0 1.303-0.408 4.28 1.597 1.267-0.352 2.576-0.529 3.891-0.526 1.323 0 2.646 0.174 3.891 0.525 2.977-2.023 4.28-1.594 4.28-1.594 0.856 2.14 0.311 3.735 0.156 4.125 0.991 1.089 1.595 2.47 1.595 4.182 0 5.974-3.637 7.297-7.102 7.686 0.565 0.486 1.052 1.419 1.052 2.879 0 2.081-0.020 3.754-0.020 4.28 0 0.408 0.293 0.893 1.071 0.738 3.089-1.043 5.774-3.029 7.675-5.678s2.925-5.827 2.926-9.088c0-8.599-6.965-15.564-15.564-15.564h0.002z"></path>
</symbol>
<symbol id="icon-home" viewBox="0 0 32 32">
<path d="M16.588 2.765c-0.17-0.133-0.38-0.205-0.596-0.205s-0.426 0.072-0.596 0.205l-13.795 10.757 1.193 1.509 1.687-1.315v11.884c0.001 0.509 0.204 0.997 0.563 1.357s0.848 0.562 1.357 0.563h19.2c0.509-0.001 0.997-0.204 1.357-0.563s0.562-0.848 0.563-1.357v-11.875l1.687 1.315 1.193-1.509-13.812-10.765zM17.92 25.599h-3.84v-7.68h3.84v7.68zM19.84 25.599v-7.68c-0-0.509-0.203-0.997-0.563-1.357s-0.848-0.562-1.357-0.563h-3.84c-0.509 0.001-0.997 0.203-1.357 0.563s-0.562 0.848-0.563 1.357v7.68h-5.76v-13.38l9.6-7.478 9.6 7.488v13.371h-5.76z"></path>
</symbol>
<symbol id="icon-instagram" viewBox="0 0 32 32">
<path fill="#0077b5" style="fill: var(--color6, #0077b5)" d="M7.321 4.342c-0 0.826-0.329 1.617-0.913 2.201s-1.376 0.911-2.202 0.911c-0.826-0-1.617-0.329-2.201-0.913s-0.911-1.376-0.911-2.202c0-0.826 0.329-1.617 0.913-2.201s1.376-0.911 2.202-0.911c0.826 0 1.617 0.329 2.201 0.913s0.911 1.376 0.911 2.202zM7.415 9.759h-6.226v19.487h6.226v-19.487zM17.251 9.759h-6.195v19.487h6.132v-10.226c0-5.697 7.424-6.226 7.424 0v10.226h6.148v-12.343c0-9.603-10.988-9.245-13.572-4.529l0.062-2.615z"></path>
</symbol>
<symbol id="icon-location" viewBox="0 0 32 32">
<path d="M16 31.839l-0.549-0.794c-0.413-0.598-10.118-14.713-10.118-20.379 0-5.881 4.785-10.667 10.667-10.667s10.667 4.785 10.667 10.667c0 5.666-9.705 19.781-10.118 20.379l-0.549 0.794zM16 1.333c-5.147 0-9.333 4.187-9.333 9.333 0 4.525 7.257 15.703 9.333 18.809 2.077-3.106 9.333-14.285 9.333-18.809 0-5.147-4.187-9.333-9.333-9.333z"></path>
<path d="M16 15.333c-2.573 0-4.667-2.093-4.667-4.667s2.094-4.667 4.667-4.667 4.667 2.093 4.667 4.667-2.094 4.667-4.667 4.667zM16 7.333c-1.838 0-3.333 1.495-3.333 3.333s1.495 3.333 3.333 3.333 3.333-1.495 3.333-3.333-1.495-3.333-3.333-3.333z"></path>
</symbol>
<symbol id="icon-mail" viewBox="0 0 32 32">
<path d="M1.552 9.040l14.448-9.040 14.448 9.040c0.928 0.56 1.552 1.568 1.552 2.736v16c0 1.76-1.44 3.2-3.2 3.2h-25.6c-1.76 0-3.2-1.44-3.2-3.2v-16c0-1.168 0.624-2.176 1.552-2.736zM3.2 27.776h25.6v-12.8l-12.8 8-12.8-8v12.8zM16 19.776l12.8-8-12.8-8-12.8 8 12.8 8z"></path>
</symbol>
<symbol id="icon-mentor" viewBox="0 0 32 32">
<path fill="#e80505" style="fill: var(--color3, #e80505)" d="M10.4 20.8c-0.12 0-0.239 0.017-0.353 0.055-0.648 0.21-1.329 0.346-2.047 0.346s-1.399-0.135-2.047-0.346c-0.114-0.037-0.233-0.055-0.353-0.055-3.103 0-5.617 2.524-5.6 5.631 0.007 1.313 1.087 2.369 2.4 2.369h11.2c1.313 0 2.393-1.056 2.4-2.369 0.016-3.107-2.497-5.631-5.6-5.631zM8 19.2c2.651 0 4.8-2.149 4.8-4.8s-2.149-4.8-4.8-4.8c-2.651 0-4.8 2.149-4.8 4.8s2.149 4.8 4.8 4.8zM29.6 3.2h-19.2c-1.323 0-2.4 1.112-2.4 2.479v2.321c1.171 0 2.255 0.339 3.2 0.89v-2.49h17.6v14.4h-3.2v-3.2h-6.4v3.2h-3.812c0.955 0.834 1.656 1.937 1.985 3.2h12.228c1.324 0 2.4-1.113 2.4-2.479v-15.841c0-1.367-1.076-2.479-2.4-2.479z"></path>
</symbol>
<symbol id="icon-phone" viewBox="0 0 32 32">
<path d="M22.095 0.762h-12.19c-0.808 0-1.583 0.321-2.155 0.893s-0.893 1.347-0.893 2.155v24.381c0 0.808 0.321 1.583 0.893 2.155s1.347 0.893 2.155 0.893h12.19c0.808 0 1.583-0.321 2.155-0.893s0.893-1.347 0.893-2.155v-24.381c0-0.808-0.321-1.583-0.893-2.155s-1.347-0.893-2.155-0.893zM17.524 29.714h-3.048v-1.524h3.048v1.524zM22.095 26.667h-12.19v-21.333h12.19v21.333z"></path>
</symbol>
<symbol id="icon-resume" viewBox="0 0 32 32">
<path d="M8 0h16c1.273 0 2.494 0.506 3.394 1.406s1.406 2.121 1.406 3.394v22.4c0 1.273-0.506 2.494-1.406 3.394s-2.121 1.406-3.394 1.406h-16c-1.273 0-2.494-0.506-3.394-1.406s-1.406-2.121-1.406-3.394v-22.4c0-1.273 0.506-2.494 1.406-3.394s2.121-1.406 3.394-1.406zM8 3.2c-0.424 0-0.831 0.169-1.131 0.469s-0.469 0.707-0.469 1.131v22.4c0 0.424 0.169 0.831 0.469 1.131s0.707 0.469 1.131 0.469h16c0.424 0 0.831-0.169 1.131-0.469s0.469-0.707 0.469-1.131v-22.4c0-0.424-0.169-0.831-0.469-1.131s-0.707-0.469-1.131-0.469h-16zM11.2 4.8h9.6c0.424 0 0.831 0.169 1.131 0.469s0.469 0.707 0.469 1.131c0 0.424-0.169 0.831-0.469 1.131s-0.707 0.469-1.131 0.469h-9.6c-0.424 0-0.831-0.169-1.131-0.469s-0.469-0.707-0.469-1.131c0-0.424 0.169-0.831 0.469-1.131s0.707-0.469 1.131-0.469zM11.2 24h3.2c0.424 0 0.831 0.169 1.131 0.469s0.469 0.707 0.469 1.131c0 0.424-0.169 0.831-0.469 1.131s-0.707 0.469-1.131 0.469h-3.2c-0.424 0-0.831-0.169-1.131-0.469s-0.469-0.707-0.469-1.131c0-0.424 0.169-0.831 0.469-1.131s0.707-0.469 1.131-0.469zM11.2 17.6h9.6c0.424 0 0.831 0.169 1.131 0.469s0.469 0.707 0.469 1.131c0 0.424-0.169 0.831-0.469 1.131s-0.707 0.469-1.131 0.469h-9.6c-0.424 0-0.831-0.169-1.131-0.469s-0.469-0.707-0.469-1.131c0-0.424 0.169-0.831 0.469-1.131s0.707-0.469 1.131-0.469zM11.2 11.2h9.6c0.424 0 0.831 0.169 1.131 0.469s0.469 0.707 0.469 1.131c0 0.424-0.169 0.831-0.469 1.131s-0.707 0.469-1.131 0.469h-9.6c-0.424 0-0.831-0.169-1.131-0.469s-0.469-0.707-0.469-1.131c0-0.424 0.169-0.831 0.469-1.131s0.707-0.469 1.131-0.469z"></path>
</symbol>
<symbol id="icon-twitter" viewBox="0 0 32 32">
<path fill="#1da1f2" style="fill: var(--color8, #1da1f2)" d="M31.976 6.786c-1.188 0.525-2.447 0.871-3.737 1.024 1.359-0.814 2.376-2.094 2.861-3.602-1.276 0.76-2.676 1.292-4.132 1.58-0.98-1.048-2.278-1.743-3.694-1.977s-2.869 0.006-4.133 0.683c-1.265 0.677-2.271 1.753-2.861 3.060s-0.732 2.774-0.403 4.17c-2.588-0.13-5.121-0.802-7.432-1.974s-4.351-2.817-5.986-4.828c-0.579 0.994-0.883 2.123-0.881 3.273 0 2.257 1.15 4.251 2.895 5.418-1.033-0.033-2.044-0.312-2.948-0.814v0.079c-0 1.503 0.52 2.96 1.472 4.124s2.277 1.962 3.75 2.26c-0.959 0.26-1.965 0.299-2.942 0.112 0.415 1.294 1.225 2.426 2.316 3.236s2.408 1.26 3.767 1.285c-1.35 1.061-2.897 1.845-4.55 2.307s-3.382 0.594-5.087 0.389c2.975 1.913 6.439 2.929 9.977 2.926 11.975 0 18.521-9.919 18.521-18.522 0-0.28-0.006-0.563-0.019-0.842 1.274-0.921 2.373-2.063 3.247-3.37z"></path>
</symbol>
<symbol id="icon-ux" viewBox="0 0 32 32">
<path fill="none" stroke="#ff9c1a" style="stroke: var(--color1, #ff9c1a)" stroke-linejoin="round" stroke-linecap="round" stroke-miterlimit="4" stroke-width="2.6667" d="M4 16c0 1.576 0.31 3.136 0.913 4.592s1.487 2.779 2.601 3.893c1.114 1.114 2.437 1.998 3.893 2.601s3.016 0.913 4.592 0.913c1.576 0 3.136-0.31 4.592-0.913s2.779-1.487 3.893-2.601c1.114-1.114 1.998-2.437 2.601-3.893s0.913-3.016 0.913-4.592-0.31-3.136-0.913-4.592c-0.603-1.456-1.487-2.779-2.601-3.893s-2.437-1.998-3.893-2.601c-1.456-0.603-3.016-0.913-4.592-0.913s-3.136 0.31-4.592 0.913c-1.456 0.603-2.779 1.487-3.893 2.601s-1.998 2.437-2.601 3.893c-0.603 1.456-0.913 3.016-0.913 4.592z"></path>
<path fill="none" stroke="#ff9c1a" style="stroke: var(--color1, #ff9c1a)" stroke-linejoin="round" stroke-linecap="round" stroke-miterlimit="4" stroke-width="2.6667" d="M9.333 13.333v2.667c0 0.707 0.281 1.385 0.781 1.886s1.178 0.781 1.886 0.781c0.707 0 1.385-0.281 1.886-0.781s0.781-1.178 0.781-1.886v-2.667M18.667 13.333l4 5.333M18.667 18.667l4-5.333"></path>
</symbol>
<symbol id="icon-work" viewBox="0 0 32 32">
<path d="M5.76 27.52c-0.704 0-1.307-0.251-1.809-0.753s-0.752-1.104-0.751-1.807v-14.080c0-0.704 0.251-1.307 0.753-1.809s1.104-0.752 1.807-0.751h5.12v-2.56c0-0.704 0.251-1.307 0.753-1.809s1.104-0.752 1.807-0.751h5.12c0.704 0 1.307 0.251 1.809 0.753s0.752 1.104 0.751 1.807v2.56h5.12c0.704 0 1.307 0.251 1.809 0.753s0.752 1.104 0.751 1.807v14.080c0 0.704-0.251 1.307-0.753 1.809s-1.104 0.752-1.807 0.751h-20.48zM5.76 24.96h20.48v-14.080h-20.48v14.080zM13.44 8.32h5.12v-2.56h-5.12v2.56z"></path>
</symbol>
</defs>
</svg>
